<?xml version="1.0" encoding="UTF-8" standalone="no"?>
<!-- Created with Inkscape (http://www.inkscape.org/) -->

<svg
   xmlns:dc="http://purl.org/dc/elements/1.1/"
   xmlns:cc="http://creativecommons.org/ns#"
   xmlns:rdf="http://www.w3.org/1999/02/22-rdf-syntax-ns#"
   xmlns:svg="http://www.w3.org/2000/svg"
   xmlns="http://www.w3.org/2000/svg"
   version="1.1"
   width="200"
   height="66.866241"
   id="svg3882">
  <defs
     id="defs3884" />
  <metadata
     id="metadata3887">
    <rdf:RDF>
      <cc:Work
         rdf:about="">
        <dc:format>image/svg+xml</dc:format>
        <dc:type
           rdf:resource="http://purl.org/dc/dcmitype/StillImage" />
        <dc:title></dc:title>
      </cc:Work>
    </rdf:RDF>
  </metadata>
  <g
     transform="translate(-1.317835,-961.93354)"
     id="layer1">
    <g
       transform="matrix(0.47464863,0,0,0.47464863,4.9641641,573.23213)"
       id="g3914">
      <path
         d="m 322.83841,818.92453 c -3.19044,0.003 -6.3368,1.63815 -8.17212,4.24784 -1.83532,2.6097 -2.31048,6.12376 -1.23413,9.12716 l 6.9375,19.28125 -318.0624952,0 c -3.26032,-0.003 -6.474775,1.70339 -8.298836,4.40571 -1.824062,2.70231 -2.204588,6.32171 -0.982414,9.34429 11.8630892,28.61039 22.2272802,57.051 33.8125002,86.53129 1.45905,3.71351 5.32262,6.3454 9.3125,6.3437 l 21.84375,0 c 3.98988,0 7.85345,-2.6302 9.3125,-6.3437 l 13.53125,-34.3438 0,30.6875 c 2.6e-4,2.6179 1.07807,5.2196 2.92923,7.0708 1.85115,1.8511 4.45285,2.9289 7.07077,2.9292 l 19.937495,0 c 2.61792,-3e-4 5.21962,-1.0781 7.07077,-2.9292 1.85116,-1.8512 2.92897,-4.4529 2.92923,-7.0708 l 0,-5.7812 c 1.54721,2.22451 3.31479,4.274 5.34375,6.125 0.0104,0.01 0.0208,0.021 0.0312,0.031 8.5208,7.7236 20.14784,11.21881 33.09375,11.21881 3.80885,0 7.65233,-0.32121 11.46875,-1.03131 l 0,-0.031 c 3.78927,-0.66339 7.51306,-1.66709 11.125,-3 3.06904,-1.13899 5.49269,-3.87779 6.25,-7.0625 0.44075,0.53331 0.72121,1.15301 1.21875,1.6562 0.031,0.032 0.0623,0.063 0.0937,0.094 6.11784,6.0491 14.52479,7.7812 23.78125,7.7812 l 17.0625,0 c 2.52156,0 5.02811,-1.0047 6.85924,-2.7383 1.83114,-1.7336 2.96744,-4.1816 3.10951,-6.6992 8.19612,7.5336 19.38271,11.0313 31.6875,11.0313 10.39946,0 19.89681,-2.644 27.53125,-8 1.35169,3.8905 5.31892,6.7148 9.4375,6.7187 l 18.125,0 c 3.97237,-0.01 7.81619,-2.6201 9.28125,-6.3125 l 17.84375,-44.8437 c 0.66903,0.01 1.45323,0.21881 2.96875,1.09381 0.7434,0.4292 1.54268,1.0208 2.3125,1.75 0.0617,0.063 0.12418,0.1258 0.1875,0.1875 0.75965,0.68429 1.43547,1.4185 2.125,2.40619 1.91703,2.73791 5.27953,4.39821 8.61881,4.2557 3.33927,-0.1425 6.54812,-2.0832 8.22494,-4.9744 l 9,-15.625 c 1.20389,-2.0875 1.61683,-4.6188 1.13878,-6.9806 -0.47806,-2.3618 -1.84287,-4.5332 -3.76378,-5.9882 -1.13534,-0.8593 -2.05599,-1.5098 -3.03125,-2.1562 l 0.0313,-0.031 c -0.1465,-0.1043 -0.26271,-0.1517 -0.40625,-0.25 -0.79052,-0.5414 -1.57581,-1.0351 -2.21875,-1.4063 -3.90477,-2.2543 -8.06891,-3.8593 -12.375,-4.5312 l 0.6875,-1.6875 c 0.92028,-2.3315 0.92028,-5.0123 0,-7.3438 l -0.15625,-0.4375 c -0.0204,-0.0523 -0.0412,-0.10434 -0.0625,-0.15625 l -15.8437,-40.21875 c -1.45905,-3.71353 -5.32262,-6.34542 -9.3125,-6.34375 z"
         id="path3053"
         style="font-size:113.96884155px;font-style:normal;font-variant:normal;font-weight:bold;font-stretch:normal;text-align:start;line-height:125%;letter-spacing:0px;word-spacing:0px;writing-mode:lr-tb;text-anchor:start;fill:#ff5599;fill-opacity:1;stroke:none;font-family:ori1Uni;-inkscape-font-specification:ori1Uni Bold" />
      <path
         d="m 322.83841,828.92453 11.75,32.65625 -332.2812452,0 6.6250002,16.4375 182.593745,0 0,48.53129 c -1e-5,7.86501 1.6415,13.44811 4.90625,16.75 3.30181,3.2647 8.88494,4.9062 16.75,4.9062 l 17.0625,0 0,-14.25 -10.21875,0 c -3.41317,0 -5.69371,-0.4983 -6.84375,-1.5 -1.15011,-1.0388 -1.71878,-3.0125 -1.71875,-5.9062 l 0,-27.5625 10.96875,-0.8125 -0.9375,-13.09379 -10.03125,0.71879 0,-7.78129 123.03125,0 -25.625,70.49999 18.125,0 19.4375,-48.875 c 0.94607,-0.6083 1.89986,-1.10369 2.90625,-1.4687 4.06053,-1.4683 8.31615,-0.93489 12.75,1.625 1.50999,0.8718 2.91356,1.9495 4.1875,3.1562 1.32449,1.1931 2.52296,2.5463 3.625,4.125 l 9,-15.625 c -1.19248,-0.9026 -2.12519,-1.5783 -2.78125,-2 -0.6377,-0.4537 -1.23423,-0.8224 -1.8125,-1.1562 -4.01618,-2.3187 -7.97495,-3.5004 -11.8125,-3.5313 -3.56361,-0.042 -7.33253,0.9464 -11.3125,2.9375 l 7.15625,-17.9687 -0.0312,0 -16.0625,-40.81255 -19.40625,0 z m -163.59375,55.43754 c -11.24109,0 -20.03105,2.9 -26.375,8.6875 -6.34398,5.7504 -9.53126,13.7548 -9.53125,24.0312 -1e-5,10.2765 3.18727,18.3063 9.53125,24.0938 6.34395,5.7503 15.13391,8.625 26.375,8.625 3.22759,0 6.43442,-0.2815 9.625,-0.875 3.22758,-0.55649 6.3836,-1.41249 9.5,-2.5625 l 0,-16.3125 c -2.37441,1.81781 -4.96177,3.1975 -7.78125,4.125 -2.78249,0.92741 -5.72746,1.4062 -8.84375,1.4062 -5.56492,0 -9.91495,-1.6161 -13.03125,-4.8437 -3.07926,-3.26479 -4.62503,-7.83169 -4.625,-13.6563 -3e-5,-5.8245 1.54574,-10.3348 4.625,-13.5625 3.1163,-3.2647 7.46633,-4.9062 13.03125,-4.9062 2.93079,0 5.76045,0.45341 8.46875,1.3437 2.74528,0.8904 5.44795,2.2701 8.15625,4.125 l 0,-16.25 c -3.1535,-1.15 -6.30952,-2.0059 -9.5,-2.5625 -3.15348,-0.5935 -6.36031,-0.9062 -9.625,-0.9062 z m 112.65625,0 c -10.75881,0 -19.19699,2.9 -25.28125,8.6875 -6.04718,5.7875 -9.06251,13.7919 -9.0625,24.0312 -1e-5,10.2394 3.01532,18.275 9.0625,24.0625 6.08426,5.7875 14.52244,8.6563 25.28125,8.6563 10.72163,0 19.08362,-2.86879 25.09375,-8.6563 6.0471,-5.7875 9.06243,-13.8231 9.0625,-24.0625 -7e-5,-10.2393 -3.0154,-18.2437 -9.0625,-24.0312 -6.01013,-5.7875 -14.37212,-8.6875 -25.09375,-8.6875 z m -260.249995,1.5 24.5,62.3437 21.84375,0 24.5625,-62.3437 -20,0 -15.46875,43.0937 -15.5,-43.0937 -19.9375,0 z m 79.1875,0.031 0,62.3124 19.937495,0 0,-62.3124 -19.937495,0 z m 181.062495,12.7187 c 4.34057,10e-5 7.6373,1.5908 9.9375,4.7813 2.3001,3.1534 3.4687,7.7145 3.46875,13.6875 -5e-5,5.973 -1.16865,10.55941 -3.46875,13.7499 -2.3002,3.1535 -5.59693,4.7501 -9.9375,4.75 -4.41484,10e-5 -7.81903,-1.5965 -10.15625,-4.75 -2.30018,-3.19049 -3.43753,-7.7769 -3.4375,-13.7499 -3e-5,-5.973 1.13732,-10.5341 3.4375,-13.6875 2.33722,-3.19049 5.74141,-4.78119 10.15625,-4.7813 z"
         id="path3848"
         style="font-size:113.96884155px;font-style:normal;font-variant:normal;font-weight:bold;font-stretch:normal;text-align:start;line-height:125%;letter-spacing:0px;word-spacing:0px;writing-mode:lr-tb;text-anchor:start;fill:#efeff7;fill-opacity:1;stroke:none;font-family:ori1Uni;-inkscape-font-specification:ori1Uni Bold" />
      <path
         d="m 377.43216,922.54957 c -1.42123,0 -2.86475,0.1299 -4.3125,0.4062 -1.44938,0.2656 -2.91393,0.7014 -4.40625,1.25 l -0.46875,0.1563 -0.0937,0.4687 -1.03125,5.0625 -0.375,1.8438 1.65625,-0.875 c 1.53222,-0.8131 2.88385,-1.4085 4.0625,-1.7813 1.18055,-0.3834 2.2295,-0.5625 3.125,-0.5625 0.9461,0 1.57264,0.213 1.96875,0.5313 0.39401,0.31661 0.56249,0.6695 0.5625,1.3437 -10e-6,0.6118 -0.20337,1.2629 -0.71875,2.0313 l 0,0.031 c -0.50531,0.7674 -1.29206,1.5661 -2.34375,2.375 l -10.125,7.65631 -0.28125,0.1875 -0.0625,0.34369 -0.90625,4.53131 -0.1875,1.0625 1.0625,0 17.3125,0 0.71875,0 0.15625,-0.71881 0.875,-4.53119 0.1875,-1.03131 -1.0625,0 -7.75,0 3.875,-2.90619 c 2.93177,-2.1988 4.8639,-3.9052 5.84375,-5.375 0.94363,-1.41551 1.40623,-3.0338 1.40625,-4.75 -2e-5,-2.037 -0.84662,-3.8098 -2.4375,-5 -1.5914,-1.20261 -3.69321,-1.75 -6.25,-1.75 z m 14.21698,0.4375 c -1.55888,8.19361 -3.18086,16.3762 -4.77948,24.5625 l -0.1875,1.0625 1.0625,0 6.5,0 c 3.89506,0 6.78156,-0.2526 8.78125,-0.7813 1.97731,-0.5197 3.74319,-1.3808 5.25,-2.625 1.71123,-1.3826 3.03077,-3.1022 3.96875,-5.125 0.94862,-2.0328 1.43747,-4.2156 1.4375,-6.5 -3e-5,-1.6541 -0.30036,-3.1513 -0.875,-4.5 -0.57448,-1.3599 -1.42643,-2.5513 -2.5625,-3.5 -1.14324,-0.9646 -2.56463,-1.6121 -4.21875,-2 -1.67496,-0.4043 -4.03038,-0.5937 -7.15625,-0.5937 z m 6.75177,6.4062 1.4375,0 c 2.02392,0 3.41034,0.4589 4.28125,1.2188 0.8837,0.7636 1.34373,1.8499 1.34375,3.5312 -2e-5,2.5603 -0.75604,4.4381 -2.25,5.875 -1.4928,1.4357 -3.48485,2.1875 -6.1875,2.1875 l -1.15625,0 z"
         id="text3859"
         style="font-size:32.73899841px;font-style:italic;font-variant:normal;font-weight:bold;font-stretch:normal;text-align:start;line-height:125%;letter-spacing:0px;word-spacing:0px;writing-mode:lr-tb;text-anchor:start;fill:#363637;fill-opacity:1;stroke:none;font-family:LKLUG;-inkscape-font-specification:LKLUG Bold Italic" />
    </g>
  </g>
</svg>
