<?xml version="1.0" encoding="UTF-8" standalone="no"?>
<!-- Created with Inkscape (http://www.inkscape.org/) -->

<svg
   xmlns:dc="http://purl.org/dc/elements/1.1/"
   xmlns:cc="http://creativecommons.org/ns#"
   xmlns:rdf="http://www.w3.org/1999/02/22-rdf-syntax-ns#"
   xmlns:svg="http://www.w3.org/2000/svg"
   xmlns="http://www.w3.org/2000/svg"
   version="1.1"
   width="381"
   height="161.0284"
   id="svg4264">
  <defs
     id="defs4266">
    <filter
       color-interpolation-filters="sRGB"
       id="filter4086">
      <feGaussianBlur
         id="feGaussianBlur4088"
         stdDeviation="1.9552768" />
    </filter>
    <filter
       x="-0.060940925"
       y="-0.19021052"
       width="1.1218818"
       height="1.380421"
       color-interpolation-filters="sRGB"
       id="filter4076">
      <feGaussianBlur
         id="feGaussianBlur4078"
         stdDeviation="9.6823193" />
    </filter>
  </defs>
  <metadata
     id="metadata4269">
    <rdf:RDF>
      <cc:Work
         rdf:about="">
        <dc:format>image/svg+xml</dc:format>
        <dc:type
           rdf:resource="http://purl.org/dc/dcmitype/StillImage" />
        <dc:title></dc:title>
      </cc:Work>
    </rdf:RDF>
  </metadata>
  <g
     transform="translate(-98.071429,-234.70513)"
     id="layer1">
    <path
       d="m 98.071429,234.70513 381.000001,0 0,161.0284 -381.000001,0 z"
       id="rect4709"
       style="fill:#100f17;fill-opacity:1;fill-rule:evenodd;stroke:none" />
    <g
       transform="translate(521.48963,-9711.3955)"
       id="g4181">
      <path
         d="m -369.659,10104.199 c 0,-107.9867 87.5405,-195.5273 195.5276,-195.5273 107.987198,0 195.527698,87.5406 195.527698,195.5273 0,107.988 -87.5405,195.528 -195.527698,195.528 -107.9871,0 -195.5276,-87.54 -195.5276,-195.528 z"
         transform="matrix(0.35724087,0,0,0.35724087,-274.87492,6416.9818)"
         id="path4977"
         style="fill:#f9f9f9;fill-opacity:0.11764706;stroke:none;filter:url(#filter4086)" />
      <path
         d="m -400.50188,10026.615 c 0,-35.0264 28.39417,-63.4203 63.42011,-63.4203 35.02597,0 63.42014,28.3939 63.42014,63.4203 0,35.026 -28.39417,63.42 -63.42014,63.42 -35.02594,0 -63.42011,-28.394 -63.42011,-63.42 z"
         id="path4979"
         style="fill:#f9f9f9;fill-opacity:0.11764706;stroke:none" />
      <path
         d="m -374.76872,9975.5901 74.6477,-0.5173 23.35776,71.1592 -60.12707,43.792 -60.39724,-43.423 z"
         id="path4981"
         style="fill:#f9f9f9;fill-opacity:0.11764706;stroke:none" />
      <path
         d="m -281.82694,9995.5151 -55.12223,94.5219 -55.48979,-94.493 z"
         id="path4983"
         style="fill:#f9f9f9;fill-opacity:0.11764706;stroke:none" />
      <path
         d="m -336.96231,10049.898 -31.89497,-54.3529 -23.57282,0 z"
         id="path4985"
         style="fill:#f9f9f9;fill-opacity:0.11764706;stroke:none" />
      <path
         d="m -305.22664,9995.5051 -31.73567,54.3929 -31.89497,-54.3529 -23.57282,0 55.46779,94.4899 55.14923,-94.5299 -23.41356,0 z"
         id="path4987"
         style="fill:#d83e31;fill-opacity:1;stroke:none" />
      <path
         d="m -336.96231,10049.898 -55.46779,-54.3529 55.46779,94.4899 z"
         id="path4989"
         style="fill:#f9f9f9;fill-opacity:0.23529412;stroke:none" />
      <path
         d="m -307.90552,9995.5051 -29.12971,49.9529 -29.32514,-49.9376 z"
         id="path4991"
         style="fill:#f9f9f9;fill-opacity:0.15686275;stroke:none" />
      <g
         transform="matrix(0.48306322,0,0,0.48306322,479.17419,8411.3206)"
         id="text4995"
         style="font-size:132.35928345px;font-style:normal;font-variant:normal;font-weight:100;font-stretch:normal;text-align:start;line-height:125%;letter-spacing:0px;word-spacing:0px;writing-mode:lr-tb;text-anchor:start;fill:#f9f9f9;fill-opacity:0.50196078;stroke:none;filter:url(#filter4076);font-family:District Pro;-inkscape-font-specification:District Pro Thin">
        <path
           d="m -1469.553,3412.4075 24.7512,-66.312 -5.8238,0 -21.4422,60.2234 -20.3834,-60.2234 -5.9561,0 23.4276,66.312 5.4267,0"
           id="path4169" />
        <path
           d="m -1425.8641,3412.4075 0,-66.312 -5.4267,0 0,66.312 5.4267,0 m -2.6472,-85.2394 c 2.5148,0 4.6326,-2.1178 4.6326,-4.7649 0,-2.5149 -2.1178,-4.6326 -4.6326,-4.6326 -2.6472,0 -4.7649,2.1177 -4.7649,4.6326 0,2.6471 2.1177,4.7649 4.7649,4.7649"
           id="path4171" />
        <path
           d="m -1365.3345,3398.6421 c -4.2355,6.4856 -9.927,10.5887 -17.3391,10.5887 -13.1036,0 -21.7069,-12.3094 -21.7069,-29.9132 0,-17.7361 8.6033,-30.0455 21.7069,-30.0455 7.4121,0 13.2359,3.9708 17.6038,10.5887 l 4.5002,-3.1766 c -4.8973,-7.8092 -12.4418,-12.3094 -22.104,-12.3094 -16.8096,0 -27.3984,14.1625 -27.3984,34.9428 0,20.7804 10.5888,34.8105 27.3984,34.8105 9.6622,0 16.942,-4.6325 21.8393,-12.4417 l -4.5002,-3.0443"
           id="path4173" />
        <path
           d="m -1320.1897,3406.4513 c -2.1177,1.7207 -4.5002,2.5148 -6.7503,2.5148 -4.6326,0 -9.0004,-3.8384 -9.0004,-10.4564 l 0,-47.3846 15.486,0 0,-5.0296 -15.486,0 0,-26.7366 -5.4268,0 0,26.7366 -10.7211,0 0,5.0296 10.7211,0 0,46.7228 c 0,10.3241 5.9562,16.2802 13.633,16.2802 2.3825,0 5.2944,-0.6618 7.5445,-1.9853 l 0,-5.6915"
           id="path4175" />
        <path
           d="m -1283.9212,3414.1281 c 17.4714,0 27.3984,-14.1624 27.3984,-34.9428 0,-20.7804 -9.927,-34.8105 -27.3984,-34.8105 -17.4714,0 -27.3983,14.0301 -27.3983,34.8105 0,20.7804 9.9269,34.9428 27.3983,34.9428 m 0,-4.7649 c -13.8977,0 -21.7069,-12.5741 -21.7069,-30.1779 0,-17.6038 7.8092,-30.0456 21.7069,-30.0456 13.8977,0 21.707,12.4418 21.707,30.0456 0,17.6038 -7.8093,30.1779 -21.707,30.1779"
           id="path4177" />
        <path
           d="m -1236.2656,3412.4075 0,-40.2373 c 0,-15.7507 10.0593,-22.6334 19.1921,-22.6334 2.7795,0 5.0296,0.6618 6.8827,1.456 l 2.1177,-5.162 c -2.3825,-0.7942 -5.2944,-1.456 -8.3386,-1.456 -8.0739,0 -15.6184,3.7061 -19.8539,11.3829 l 0,-9.6622 -5.4268,0 0,66.312 5.4268,0"
           id="path4179" />
      </g>
      <g
         transform="matrix(0.48306322,0,0,0.48306322,479.17419,8411.3206)"
         id="text4999"
         style="font-size:132.35928345px;font-style:normal;font-variant:normal;font-weight:100;font-stretch:normal;text-align:start;line-height:125%;letter-spacing:0px;word-spacing:0px;writing-mode:lr-tb;text-anchor:start;fill:#ffe680;fill-opacity:0.35294118;stroke:none;filter:url(#filter4076);font-family:District Pro;-inkscape-font-specification:District Pro Thin">
        <path
           d="m -1199.5294,3408.4367 c 0,-2.9119 -2.3824,-5.2944 -5.4267,-5.2944 -2.9119,0 -5.2944,2.3825 -5.2944,5.2944 0,3.0443 2.3825,5.4267 5.2944,5.4267 3.0443,0 5.4267,-2.3824 5.4267,-5.4267"
           id="path4161" />
        <path
           d="m -1179.4769,3327.1681 c 2.5148,0 4.6325,-2.1178 4.6325,-4.7649 0,-2.5149 -2.1177,-4.6326 -4.6325,-4.6326 -2.6472,0 -4.765,2.1177 -4.765,4.6326 0,2.6471 2.1178,4.7649 4.765,4.7649 m -2.7796,97.4164 c 0,6.618 -3.706,10.5888 -7.9415,10.5888 -1.7207,0 -3.5737,-0.5295 -5.162,-1.8531 l -1.7207,4.6326 c 2.5148,1.3236 4.8973,1.9854 7.2797,1.9854 7.4122,0 12.9713,-6.3533 12.9713,-16.6773 l 0,-77.1654 -5.4268,0 0,78.489"
           id="path4164" />
        <path
           d="m -1160.6405,3401.4217 c 5.2943,9.2651 12.8388,12.7064 22.104,12.7064 13.7653,0 21.4422,-7.6768 21.4422,-18.1332 0,-9.0004 -5.2944,-14.9566 -21.707,-20.9127 -10.4563,-3.7061 -15.486,-7.2798 -15.486,-14.1625 0,-7.6768 6.2209,-11.78 14.6919,-11.78 6.2209,0 12.5741,2.9119 17.0743,9.3975 l 4.2355,-3.3089 c -5.8238,-7.5445 -12.9712,-10.8535 -21.1775,-10.8535 -13.2359,0 -20.5156,7.4121 -20.5156,16.5449 0,8.0739 4.8973,14.1625 17.0743,18.3979 15.7507,5.5591 20.1186,9.927 20.1186,16.8097 0,7.2797 -5.2944,13.2359 -15.6184,13.2359 -7.6768,0 -13.3683,-3.5737 -18.0008,-11.1182 l -4.2355,3.1767"
           id="path4166" />
      </g>
      <g
         id="text5003"
         style="font-size:63.93790054px;font-style:normal;font-variant:normal;font-weight:100;font-stretch:normal;text-align:start;line-height:125%;letter-spacing:0px;word-spacing:0px;writing-mode:lr-tb;text-anchor:start;fill:#f9f9f9;fill-opacity:0.50196078;stroke:none;font-family:District Pro;-inkscape-font-specification:District Pro Thin">
        <path
           d="m -230.71283,10059.729 11.95639,-32.033 -2.81327,0 -10.35794,29.091 -9.84644,-29.091 -2.8772,0 11.31701,32.033 2.62145,0"
           id="path4148" />
        <path
           d="m -209.60833,10059.729 0,-32.033 -2.62145,0 0,32.033 2.62145,0 m -1.27876,-41.176 c 1.21482,0 2.23783,-1.024 2.23783,-2.302 0,-1.215 -1.02301,-2.238 -2.23783,-2.238 -1.27875,0 -2.30176,1.023 -2.30176,2.238 0,1.278 1.02301,2.302 2.30176,2.302"
           id="path4150" />
        <path
           d="m -180.36873,10053.079 c -2.04601,3.133 -4.79534,5.115 -8.37586,5.115 -6.32985,0 -10.48582,-5.946 -10.48582,-14.45 0,-8.568 4.15597,-14.514 10.48582,-14.514 3.58052,0 6.39379,1.918 8.50374,5.115 l 2.17389,-1.534 c -2.3657,-3.773 -6.01017,-5.947 -10.67763,-5.947 -8.12011,0 -13.23515,6.842 -13.23515,16.88 0,10.038 5.11504,16.816 13.23515,16.816 4.66746,0 8.18405,-2.238 10.54975,-6.01 l -2.17389,-1.471"
           id="path4152" />
        <path
           d="m -158.56091,10056.851 c -1.023,0.832 -2.17389,1.215 -3.26083,1.215 -2.23783,0 -4.34778,-1.854 -4.34778,-5.051 l 0,-22.89 7.48074,0 0,-2.429 -7.48074,0 0,-12.916 -2.62145,0 0,12.916 -5.17897,0 0,2.429 5.17897,0 0,22.57 c 0,4.987 2.87721,7.865 6.5856,7.865 1.15088,0 2.55752,-0.32 3.64446,-0.959 l 0,-2.75"
           id="path4154" />
        <path
           d="m -141.04092,10060.56 c 8.4398,0 13.23515,-6.842 13.23515,-16.88 0,-10.038 -4.79535,-16.816 -13.23515,-16.816 -8.43979,0 -13.23514,6.778 -13.23514,16.816 0,10.038 4.79535,16.88 13.23514,16.88 m 0,-2.302 c -6.71347,0 -10.48581,-6.074 -10.48581,-14.578 0,-8.504 3.77234,-14.514 10.48581,-14.514 6.71347,0 10.48582,6.01 10.48582,14.514 0,8.504 -3.77235,14.578 -10.48582,14.578"
           id="path4156" />
        <path
           d="m -118.02028,10059.729 0,-19.438 c 0,-7.608 4.85929,-10.933 9.271,-10.933 1.34269,0 2.42964,0.32 3.32477,0.703 l 1.023,-2.493 c -1.15088,-0.384 -2.55751,-0.704 -4.02808,-0.704 -3.90021,0 -7.54468,1.791 -9.59069,5.499 l 0,-4.667 -2.62145,0 0,32.033 2.62145,0"
           id="path4158" />
      </g>
      <g
         id="text5007"
         style="font-size:63.93790054px;font-style:normal;font-variant:normal;font-weight:100;font-stretch:normal;text-align:start;line-height:125%;letter-spacing:0px;word-spacing:0px;writing-mode:lr-tb;text-anchor:start;fill:#d83e31;fill-opacity:1;stroke:none;font-family:District Pro;-inkscape-font-specification:District Pro Thin">
        <path
           d="m -100.27428,10057.81 c 0,-1.406 -1.15088,-2.557 -2.62145,-2.557 -1.40663,0 -2.55752,1.151 -2.55752,2.557 0,1.471 1.15089,2.622 2.55752,2.622 1.47057,0 2.62145,-1.151 2.62145,-2.622"
           id="path4140" />
        <path
           d="m -90.587686,10018.553 c 1.214819,0 2.237826,-1.024 2.237826,-2.302 0,-1.215 -1.023007,-2.238 -2.237826,-2.238 -1.278757,0 -2.301765,1.023 -2.301765,2.238 0,1.278 1.023008,2.302 2.301765,2.302 m -1.342696,47.058 c 0,3.197 -1.790263,5.115 -3.836274,5.115 -0.831192,0 -1.726324,-0.256 -2.493578,-0.895 l -0.831193,2.238 c 1.214819,0.639 2.365703,0.959 3.516585,0.959 3.580518,0 6.265914,-3.069 6.265914,-8.057 l 0,-37.275 -2.621454,0 0,37.915"
           id="path4142" />
        <path
           d="m -81.488525,10054.422 c 2.557514,4.475 6.201981,6.138 10.67763,6.138 6.649535,0 10.35794,-3.709 10.35794,-8.76 0,-4.348 -2.557524,-7.225 -10.485816,-10.102 -5.051089,-1.79 -7.480735,-3.517 -7.480735,-6.841 0,-3.709 3.005086,-5.691 7.097107,-5.691 3.005079,0 6.074103,1.407 8.24799,4.54 l 2.046012,-1.599 c -2.813264,-3.644 -6.265918,-5.243 -10.230064,-5.243 -6.393783,0 -9.910374,3.581 -9.910374,7.993 0,3.9 2.365708,6.841 8.247989,8.887 7.608602,2.685 9.718561,4.795 9.718561,8.12 0,3.517 -2.557521,6.394 -7.544672,6.394 -3.708395,0 -6.457731,-1.726 -8.695555,-5.371 l -2.046013,1.535"
           id="path4144" />
      </g>
    </g>
  </g>
</svg>
